<svg width="30" height="30" viewBox="0 0 30 30" fill="none" xmlns="http://www.w3.org/2000/svg">
<path d="M15 27.5C14.3125 27.5 13.7242 27.2554 13.235 26.7662C12.7458 26.2771 12.5008 25.6883 12.5 25H17.5C17.5 25.6875 17.2554 26.2762 16.7663 26.7662C16.2771 27.2562 15.6883 27.5008 15 27.5ZM11.25 23.75C10.8958 23.75 10.5992 23.63 10.36 23.39C10.1208 23.15 10.0008 22.8533 10 22.5C9.99917 22.1467 10.1192 21.85 10.36 21.61C10.6008 21.37 10.8975 21.25 11.25 21.25H18.75C19.1042 21.25 19.4013 21.37 19.6413 21.61C19.8813 21.85 20.0008 22.1467 20 22.5C19.9992 22.8533 19.8792 23.1504 19.64 23.3912C19.4008 23.6321 19.1042 23.7517 18.75 23.75H11.25ZM10.3125 20C8.875 19.1458 7.73417 18 6.89 16.5625C6.04583 15.125 5.62417 13.5625 5.625 11.875C5.625 9.27083 6.53667 7.0575 8.36 5.235C10.1833 3.4125 12.3967 2.50083 15 2.5C17.6033 2.49917 19.8171 3.41083 21.6413 5.235C23.4654 7.05917 24.3767 9.2725 24.375 11.875C24.375 13.5625 23.9533 15.125 23.11 16.5625C22.2667 18 21.1258 19.1458 19.6875 20H10.3125ZM11.0625 17.5H18.9375C19.875 16.8333 20.5992 16.0104 21.11 15.0312C21.6208 14.0521 21.8758 13 21.875 11.875C21.875 9.95833 21.2083 8.33333 19.875 7C18.5417 5.66667 16.9167 5 15 5C13.0833 5 11.4583 5.66667 10.125 7C8.79167 8.33333 8.125 9.95833 8.125 11.875C8.125 13 8.38042 14.0521 8.89125 15.0312C9.40208 16.0104 10.1258 16.8333 11.0625 17.5Z" fill="#D3B106"/>
</svg>
