<svg width="41" height="25" viewBox="0 0 41 25" fill="none" xmlns="http://www.w3.org/2000/svg">
<path d="M2.27711 0.0880584V7.81006H0.396111V0.0880584H2.27711ZM3.32125 3.93806C3.32125 3.17539 3.48625 2.49706 3.81625 1.90306C4.14625 1.30173 4.60459 0.836058 5.19125 0.506058C5.78525 0.168725 6.45625 5.81741e-05 7.20425 5.81741e-05C8.12092 5.81741e-05 8.90559 0.242058 9.55825 0.726058C10.2109 1.21006 10.6473 1.87006 10.8673 2.70606H8.79925C8.64525 2.38339 8.42525 2.13773 8.13925 1.96906C7.86059 1.80039 7.54159 1.71606 7.18225 1.71606C6.60292 1.71606 6.13359 1.91773 5.77425 2.32106C5.41492 2.72439 5.23525 3.26339 5.23525 3.93806C5.23525 4.61273 5.41492 5.15173 5.77425 5.55506C6.13359 5.95839 6.60292 6.16006 7.18225 6.16006C7.54159 6.16006 7.86059 6.07573 8.13925 5.90706C8.42525 5.73839 8.64525 5.49273 8.79925 5.17006H10.8673C10.6473 6.00606 10.2109 6.66606 9.55825 7.15006C8.90559 7.62673 8.12092 7.86506 7.20425 7.86506C6.45625 7.86506 5.78525 7.70006 5.19125 7.37006C4.60459 7.03273 4.14625 6.56706 3.81625 5.97306C3.48625 5.37906 3.32125 4.70073 3.32125 3.93806ZM20.7642 0.0880584V7.81006H18.8832V3.17906L17.1562 7.81006H15.6382L13.9002 3.16806V7.81006H12.0192V0.0880584H14.2412L16.4082 5.43406L18.5532 0.0880584H20.7642ZM21.7978 3.93806C21.7978 3.17539 21.9628 2.49706 22.2928 1.90306C22.6228 1.30173 23.0811 0.836058 23.6678 0.506058C24.2618 0.168725 24.9328 5.81741e-05 25.6808 5.81741e-05C26.5975 5.81741e-05 27.3821 0.242058 28.0348 0.726058C28.6875 1.21006 29.1238 1.87006 29.3438 2.70606H27.2758C27.1218 2.38339 26.9018 2.13773 26.6158 1.96906C26.3371 1.80039 26.0181 1.71606 25.6588 1.71606C25.0795 1.71606 24.6101 1.91773 24.2508 2.32106C23.8915 2.72439 23.7118 3.26339 23.7118 3.93806C23.7118 4.61273 23.8915 5.15173 24.2508 5.55506C24.6101 5.95839 25.0795 6.16006 25.6588 6.16006C26.0181 6.16006 26.3371 6.07573 26.6158 5.90706C26.9018 5.73839 27.1218 5.49273 27.2758 5.17006H29.3438C29.1238 6.00606 28.6875 6.66606 28.0348 7.15006C27.3821 7.62673 26.5975 7.86506 25.6808 7.86506C24.9328 7.86506 24.2618 7.70006 23.6678 7.37006C23.0811 7.03273 22.6228 6.56706 22.2928 5.97306C21.9628 5.37906 21.7978 4.70073 21.7978 3.93806ZM5.23611 17.0881V22.3461C5.23611 23.1601 5.00511 23.7871 4.54311 24.2271C4.08844 24.6671 3.47244 24.8871 2.69511 24.8871C1.88111 24.8871 1.22844 24.6561 0.737111 24.1941C0.245778 23.7321 0.000111334 23.0757 0.000111334 22.2251H1.87011C1.87011 22.5477 1.93611 22.7934 2.06811 22.9621C2.20011 23.1234 2.39078 23.2041 2.64011 23.2041C2.86744 23.2041 3.04344 23.1307 3.16811 22.9841C3.29278 22.8374 3.35511 22.6247 3.35511 22.3461V17.0881H5.23611ZM8.60349 17.0881V21.7081C8.60349 22.1701 8.71715 22.5257 8.94449 22.7751C9.17182 23.0244 9.50549 23.1491 9.94549 23.1491C10.3855 23.1491 10.7228 23.0244 10.9575 22.7751C11.1922 22.5257 11.3095 22.1701 11.3095 21.7081V17.0881H13.1905V21.6971C13.1905 22.3864 13.0438 22.9694 12.7505 23.4461C12.4572 23.9227 12.0612 24.2821 11.5625 24.5241C11.0712 24.7661 10.5212 24.8871 9.91249 24.8871C9.30382 24.8871 8.75749 24.7697 8.27349 24.5351C7.79682 24.2931 7.41915 23.9337 7.14049 23.4571C6.86182 22.9731 6.72249 22.3864 6.72249 21.6971V17.0881H8.60349ZM11.2325 15.5371L8.58149 16.6481V15.3501L11.2325 14.0741V15.5371ZM21.4193 24.8101H19.5383L16.3923 20.0471V24.8101H14.5113V17.0881H16.3923L19.5383 21.8731V17.0881H21.4193V24.8101ZM24.6638 17.0881V24.8101H22.7828V17.0881H24.6638ZM29.679 24.8871C28.953 24.8871 28.2856 24.7184 27.677 24.3811C27.0756 24.0437 26.5953 23.5744 26.236 22.9731C25.884 22.3644 25.708 21.6824 25.708 20.9271C25.708 20.1717 25.884 19.4934 26.236 18.8921C26.5953 18.2907 27.0756 17.8214 27.677 17.4841C28.2856 17.1467 28.953 16.9781 29.679 16.9781C30.405 16.9781 31.0686 17.1467 31.67 17.4841C32.2786 17.8214 32.7553 18.2907 33.1 18.8921C33.452 19.4934 33.628 20.1717 33.628 20.9271C33.628 21.6824 33.452 22.3644 33.1 22.9731C32.748 23.5744 32.2713 24.0437 31.67 24.3811C31.0686 24.7184 30.405 24.8871 29.679 24.8871ZM29.679 23.1711C30.295 23.1711 30.7863 22.9657 31.153 22.5551C31.527 22.1444 31.714 21.6017 31.714 20.9271C31.714 20.2451 31.527 19.7024 31.153 19.2991C30.7863 18.8884 30.295 18.6831 29.679 18.6831C29.0556 18.6831 28.557 18.8847 28.183 19.2881C27.8163 19.6914 27.633 20.2377 27.633 20.9271C27.633 21.6091 27.8163 22.1554 28.183 22.5661C28.557 22.9694 29.0556 23.1711 29.679 23.1711ZM38.6124 24.8101L37.0064 21.8951H36.5554V24.8101H34.6744V17.0881H37.8314C38.4401 17.0881 38.9571 17.1944 39.3824 17.4071C39.8151 17.6197 40.1378 17.9131 40.3504 18.2871C40.5631 18.6537 40.6694 19.0644 40.6694 19.5191C40.6694 20.0324 40.5228 20.4907 40.2294 20.8941C39.9434 21.2974 39.5181 21.5834 38.9534 21.7521L40.7354 24.8101H38.6124ZM36.5554 20.5641H37.7214C38.0661 20.5641 38.3228 20.4797 38.4914 20.3111C38.6674 20.1424 38.7554 19.9041 38.7554 19.5961C38.7554 19.3027 38.6674 19.0717 38.4914 18.9031C38.3228 18.7344 38.0661 18.6501 37.7214 18.6501H36.5554V20.5641Z" fill="url(#paint0_linear_5_91)"/>
<defs>
<linearGradient id="paint0_linear_5_91" x1="-10.7859" y1="0.810059" x2="30.7141" y2="23.8101" gradientUnits="userSpaceOnUse">
<stop offset="0.211538" stop-color="#09224C"/>
<stop offset="0.629808" stop-color="#315187"/>
<stop offset="1" stop-color="#4983E5"/>
</linearGradient>
</defs>
</svg>
